<?xml version="1.0" encoding="utf-8"?>
<!-- Generator: Adobe Illustrator 26.5.0, SVG Export Plug-In . SVG Version: 6.00 Build 0)  -->
<svg version="1.1" id="linkedin" xmlns="http://www.w3.org/2000/svg" xmlns:xlink="http://www.w3.org/1999/xlink" x="0px" y="0px"
	 viewBox="0 0 183.8 179.9" style="enable-background:new 0 0 183.8 179.9;" xml:space="preserve">
<style type="text/css">
	.st0{fill:#FFFFFF;}
</style>
<path class="st0" d="M21.6,0C9.1,0,0,8.6,0,20.5S8.9,41,21.1,41c6.4,0,11.8-2.1,15.8-6c3.8-3.7,6-8.9,6-14.6C42.6,8.4,33.9,0,21.6,0
	z M31.4,29.3c-2.5,2.4-6,3.7-10.2,3.7C13.4,33,8,27.8,8,20.5S13.4,8,21.6,8s13.2,4.9,13.3,12.5C34.9,23.9,33.7,27.1,31.4,29.3z"/>
<path class="st0" d="M3.8,179.9h36V47.7h-36V179.9z M11.8,55.7h20v116.2h-20V55.7z"/>
<path class="st0" d="M134.6,47.7c-16.7,0-26.9,5.8-32.8,11.2l-1.1-11.2H60v132.2h39.8v-69.5c0-3,1.2-9.2,2-10.8
	c4.8-10.4,11.3-10.4,21.1-10.4c11.3,0,20.9,10.6,20.9,23.2v67.5h40v-74.7C183.8,65.7,158.3,47.7,134.6,47.7L134.6,47.7L134.6,47.7z
	 M175.8,171.9h-24v-59.5c0-16.9-13.2-31.2-28.9-31.2c-10.1,0-21.4,0-28.4,15c-1.4,3.1-2.7,10.5-2.7,14.2v61.5H68V55.7h25.4l1.6,16.2
	h6.6l1.2-1.9c2.7-4.3,11.1-14.3,31.8-14.3s41.2,15.5,41.2,49.5L175.8,171.9L175.8,171.9L175.8,171.9z"/>
</svg>
