<?xml version="1.0" encoding="UTF-8"?>
<svg id="linkedin" xmlns="http://www.w3.org/2000/svg" viewBox="0 0 183.84 179.9">
  <defs>
    <style>
      .cls-1 {
        fill: #0093e9;
      }
    </style>
  </defs>
  <path class="cls-1" d="M21.57,0C9.07,0,0,8.62,0,20.49s8.89,20.47,21.14,20.47c6.35,0,11.82-2.06,15.83-5.96,3.84-3.74,5.96-8.89,5.95-14.61C42.64,8.39,33.86,0,21.57,0Zm9.82,29.27c-2.48,2.41-6.03,3.69-10.25,3.69-7.73,0-13.14-5.13-13.14-12.47S13.45,8,21.57,8s13.17,4.94,13.35,12.49c0,3.45-1.25,6.57-3.53,8.78Z"/>
  <path class="cls-1" d="M3.84,179.9H39.79V47.72H3.84V179.9ZM11.84,55.72H31.79v116.18H11.84V55.72Z"/>
  <path class="cls-1" d="M134.59,47.72c-16.67,0-26.88,5.75-32.79,11.17l-1.12-11.17H60V179.9h39.84V110.43c0-2.99,1.21-9.21,1.97-10.85,4.81-10.37,11.3-10.37,21.14-10.37,11.32,0,20.89,10.62,20.89,23.19v67.49h40V105.22c0-39.5-25.53-57.5-49.24-57.5h0Zm41.24,124.18h-24v-59.49c0-16.91-13.23-31.19-28.89-31.19-10.05,0-21.43,0-28.39,15-1.44,3.1-2.71,10.53-2.71,14.21v61.47h-23.84V55.72h25.44l1.63,16.18h6.55l1.17-1.89c2.67-4.29,11.11-14.29,31.79-14.29s41.24,15.49,41.24,49.5v66.68h0Z"/>
</svg>